<svg width="185" height="54" fill="none" xmlns="http://www.w3.org/2000/svg"><path stroke="#fff" stroke-width="2" d="M1 13.333h39.667V53H1z"/><path stroke="#fff" stroke-width="2" d="M13.333 1H53v39.667H13.333z"/><path stroke="#fff" stroke-width="2" d="M7.167 7.167h39.667v39.667H7.167z"/><path fill="#fff" d="M17.5 25.083h10.417V35.5H17.5zM79.604 8.25v14.583H76.25V11h-6.583v11.833h-3.355V8.25h13.292zm12.032 14.833c-1.514 0-2.882-.326-4.104-.979a7.386 7.386 0 01-2.854-2.687c-.681-1.153-1.021-2.445-1.021-3.875 0-1.43.34-2.716 1.02-3.854a7.337 7.337 0 012.855-2.709C88.754 8.326 90.122 8 91.636 8c1.514 0 2.875.326 4.083.98a7.336 7.336 0 012.854 2.707c.695 1.14 1.042 2.424 1.042 3.855 0 1.43-.347 2.722-1.042 3.875a7.386 7.386 0 01-2.854 2.687c-1.208.653-2.57.98-4.083.98zm0-2.875c.861 0 1.639-.194 2.333-.583a4.26 4.26 0 001.625-1.667c.403-.708.604-1.514.604-2.416 0-.903-.201-1.709-.604-2.417a4.118 4.118 0 00-1.625-1.646c-.694-.403-1.472-.604-2.333-.604-.861 0-1.639.201-2.333.604a4.26 4.26 0 00-1.646 1.646c-.39.708-.584 1.514-.584 2.417 0 .902.195 1.708.584 2.416a4.41 4.41 0 001.646 1.667c.694.389 1.472.583 2.333.583zM114.616 11h-4.667v11.833h-3.333V11h-4.646V8.25h12.646V11zm10.332 12.083c-1.514 0-2.882-.326-4.104-.979a7.385 7.385 0 01-2.854-2.687c-.681-1.153-1.021-2.445-1.021-3.875 0-1.43.34-2.716 1.021-3.854a7.336 7.336 0 012.854-2.709c1.222-.653 2.59-.979 4.104-.979 1.514 0 2.875.326 4.083.98a7.338 7.338 0 012.855 2.707c.694 1.14 1.041 2.424 1.041 3.855 0 1.43-.347 2.722-1.041 3.875a7.388 7.388 0 01-2.855 2.687c-1.208.653-2.569.98-4.083.98zm0-2.875c.861 0 1.639-.194 2.333-.583a4.251 4.251 0 001.625-1.667c.403-.708.605-1.514.605-2.416 0-.903-.202-1.709-.605-2.417a4.11 4.11 0 00-1.625-1.646c-.694-.403-1.472-.604-2.333-.604-.861 0-1.639.201-2.333.604a4.258 4.258 0 00-1.646 1.646c-.389.708-.583 1.514-.583 2.417 0 .902.194 1.708.583 2.416a4.408 4.408 0 001.646 1.667c.694.389 1.472.583 2.333.583zM149.579 8.25v14.583h-3.334V11h-5l-.104 3.042c-.069 2.07-.236 3.75-.5 5.041-.264 1.278-.708 2.264-1.333 2.959-.611.68-1.472 1.02-2.584 1.02-.458 0-1.013-.076-1.666-.229l.208-2.854c.181.056.382.084.604.084.806 0 1.368-.473 1.688-1.417.319-.959.521-2.452.604-4.48l.208-5.916h11.209zm10.746 8.708h-2.333v5.875h-3.354V8.25h3.354v5.896h2.416l3.834-5.896h3.562l-4.771 7.042 4.917 7.541h-3.833l-3.792-5.875zm10.664-8.708h3.355v9.5l6.958-9.5h3.167v14.583h-3.334v-9.479l-6.958 9.48h-3.188V8.25zM70.938 31.167V45.75h-3.376V33.875h-2.916v-2.708h6.291zM81.18 46c-1.21 0-2.286-.299-3.23-.896s-1.688-1.458-2.23-2.583c-.527-1.14-.79-2.493-.79-4.063 0-1.57.263-2.916.79-4.041.543-1.14 1.286-2.007 2.23-2.605.944-.597 2.02-.895 3.23-.895 1.207 0 2.284.298 3.228.895.945.598 1.68 1.466 2.209 2.605.541 1.125.812 2.472.812 4.041 0 1.57-.27 2.924-.812 4.063-.528 1.125-1.264 1.986-2.209 2.583-.944.597-2.02.896-3.229.896zm0-2.854c.888 0 1.582-.382 2.082-1.146.514-.764.771-1.944.771-3.542 0-1.597-.257-2.777-.77-3.541-.5-.764-1.195-1.146-2.084-1.146-.875 0-1.57.382-2.083 1.146-.5.764-.75 1.944-.75 3.541 0 1.598.25 2.778.75 3.542.514.764 1.208 1.146 2.083 1.146zm15.956-6.042c1.278.209 2.257.688 2.938 1.438.68.736 1.021 1.652 1.021 2.75 0 .847-.223 1.632-.667 2.354-.444.708-1.125 1.278-2.042 1.708-.902.43-2.013.646-3.333.646-1.028 0-2.042-.132-3.042-.396-.986-.278-1.826-.666-2.52-1.166l1.312-2.584a6.567 6.567 0 001.917.98 7.742 7.742 0 002.25.333c.847 0 1.514-.16 2-.48.486-.333.729-.798.729-1.395 0-1.195-.91-1.792-2.73-1.792h-1.54v-2.23l3-3.395h-6.21v-2.708h10.209v2.187l-3.292 3.75zm8.892 8.813a1.955 1.955 0 01-1.438-.584c-.388-.389-.583-.875-.583-1.458 0-.597.195-1.076.583-1.438.389-.374.869-.562 1.438-.562s1.049.188 1.437.563c.389.36.584.84.584 1.437 0 .583-.195 1.07-.584 1.458a1.952 1.952 0 01-1.437.584zm16.619-7.75c.833.264 1.486.708 1.958 1.333.473.611.709 1.368.709 2.27 0 1.279-.5 2.265-1.5 2.96-.986.68-2.431 1.02-4.334 1.02h-7.541V31.167h7.125c1.778 0 3.139.34 4.083 1.02.958.681 1.438 1.605 1.438 2.771 0 .709-.174 1.34-.521 1.896a3.508 3.508 0 01-1.417 1.313zm-7.354-4.459v3.438h3.354c.833 0 1.465-.146 1.896-.438.431-.291.646-.722.646-1.291 0-.57-.215-.993-.646-1.271-.431-.292-1.063-.438-1.896-.438h-3.354zm3.937 9.5c.889 0 1.556-.145 2-.437.459-.292.688-.743.688-1.354 0-1.209-.896-1.813-2.688-1.813h-3.937v3.604h3.937zm16.792-2.625v5.167h-3.375v-5.208l-5.646-9.375h3.584l3.895 6.479 3.896-6.48h3.313l-5.667 9.417z"/></svg>