<svg width="19" height="15" fill="none" xmlns="http://www.w3.org/2000/svg"><path d="M18.912 9.715a.394.394 0 00-.086-.129L14.09 4.851a.395.395 0 00-.558.558l4.063 4.062h-7.73A9.087 9.087 0 01.79.395a.395.395 0 00-.789 0c.006 5.446 4.42 9.859 9.866 9.865h7.729l-4.062 4.062a.395.395 0 10.548.567l.01-.01 4.736-4.735a.394.394 0 00.085-.43z" fill="#fff"/><path d="M13.812 14.995a.395.395 0 01-.279-.673l4.456-4.457-4.457-4.456a.394.394 0 01.558-.558l4.736 4.735a.395.395 0 010 .558l-4.735 4.736a.398.398 0 01-.28.115z" fill="#fff"/><path d="M18.547 10.26H9.866C4.419 10.254.006 5.84 0 .395a.395.395 0 11.79 0A9.087 9.087 0 009.864 9.47h8.682a.395.395 0 110 .79z" fill="#fff"/></svg>