<svg width="66" height="66" fill="none" xmlns="http://www.w3.org/2000/svg"><path d="M64.719 26.438H59.25a12.08 12.08 0 01-7.219-2.407l-5.25-3.937a1.083 1.083 0 00-1.312 0l-1.532 1.148V3.47a3.291 3.291 0 00-3.28-3.281H3.468a3.291 3.291 0 00-3.281 3.28v59.063a3.291 3.291 0 003.28 3.282h37.188a3.28 3.28 0 002.636-1.357l2.319 1.225a1.073 1.073 0 001.028 0l11.605-6.147a14.178 14.178 0 007.569-12.556V27.531a1.093 1.093 0 00-1.094-1.093zM30.813 2.375h4.375v9.986l-1.586-1.05a1.066 1.066 0 00-1.204 0l-1.586 1.05V2.375zm9.843 61.25H3.47a1.093 1.093 0 01-1.094-1.094V3.47A1.094 1.094 0 013.47 2.376h25.156v12.031a1.094 1.094 0 001.695.908L33 13.531l2.68 1.783a1.094 1.094 0 001.695-.908V2.375h3.281a1.094 1.094 0 011.094 1.094v19.414l-1.531 1.148A12.08 12.08 0 0133 26.438H4.562v2.187h21.875V33H4.563v2.188h21.875v4.374H4.563v2.188h21.875v4.375H4.563v2.188h21.941a14.405 14.405 0 001.127 4.374H4.563v2.188h24.27a14.218 14.218 0 004.67 4.375H4.563v2.188h32.812v-.11l3.927 2.078a1.118 1.118 0 01-.646.219zm22.969-16.647a12.017 12.017 0 01-6.398 10.631l-11.102 5.874-11.102-5.874a12.018 12.018 0 01-6.398-10.63V28.624H33c3.076-.003 6.069-1 8.531-2.844l4.594-3.445 4.594 3.445a14.255 14.255 0 008.531 2.844h4.375v18.353z" fill="#32435F"/><path d="M60.344 30.813H59.25a16.53 16.53 0 01-9.844-3.282l-2.625-1.968a1.083 1.083 0 00-1.312 0l-2.625 1.968A16.53 16.53 0 0133 30.813h-1.094a1.094 1.094 0 00-1.093 1.093v15.072a9.801 9.801 0 005.238 8.695l9.56 5.064a1.159 1.159 0 001.028 0l9.56-5.064a9.801 9.801 0 005.239-8.695V31.906a1.094 1.094 0 00-1.094-1.093zM59.25 46.977a7.62 7.62 0 01-4.08 6.76l-9.045 4.79-9.056-4.79A7.643 7.643 0 0133 46.977V33a18.703 18.703 0 0011.156-3.719l1.969-1.476 1.969 1.476A18.703 18.703 0 0059.25 33v13.978zM8.938 6.75H4.561v2.188h4.375V6.75zm15.312 0H11.125v2.188H24.25V6.75zm0 6.563H4.562V15.5H24.25v-2.188zm13.125 6.562H4.562v2.188h32.813v-2.188z" fill="#32435F"/></svg>