<svg width="70" height="70" fill="none" xmlns="http://www.w3.org/2000/svg"><path d="M69.835 48.567a1.356 1.356 0 00-1.238-1.32c-3.227-.283-7.198-2.45-10.117-5.523a1.357 1.357 0 00-1.966 0 20.545 20.545 0 01-4.4 3.497c-2.755-3.075-6.144-5.34-10.117-6.766a27.844 27.844 0 00-1.044-.351c3.36-3.35 5.62-7.754 5.62-11.704v-2.132a4.495 4.495 0 002.701-4.118 4.492 4.492 0 00-2.893-4.192C45.684 9.19 40.915 3.5 34.364 1.617A2.038 2.038 0 0032.373 0h-4.916c-.944 0-1.737.647-1.966 1.52a16.866 16.866 0 00-8.372 5.244 16.772 16.772 0 00-3.987 9.195 4.492 4.492 0 00-2.894 4.192 4.495 4.495 0 002.706 4.118v2.13c0 3.947 2.26 8.352 5.62 11.705-.308.097-.612.198-.913.304a1.35 1.35 0 00-.172.062c-4.447 1.604-8.16 4.26-11.066 7.926-2.796 3.527-4.784 7.882-5.908 12.945-.4 1.81-.701 4.084.533 5.62 1.205 1.501 3.362 1.693 5.106 1.693h21.154c.75 0 1.202-.607 1.202-1.356 0-.749-.453-1.356-1.202-1.356H6.144c-1.623 0-2.629-.23-2.99-.68-.384-.477-.384-1.599 0-3.334 1.41-6.35 4.857-14.12 13.162-18.044-.255 4.583 2.228 7.578 3.806 9.48a1.357 1.357 0 001.99.105l7.644-7.434 7.649 7.435a1.357 1.357 0 001.99-.108c1.576-1.903 4.055-4.9 3.802-9.473a21.626 21.626 0 016.37 4.576c-1.094.423-2.169.694-3.171.781a1.357 1.357 0 00-1.238 1.32c-.114 4.85.695 8.324 2.882 12.391.018.035.757 1.36 1.909 2.985h-22.65a1.357 1.357 0 000 2.713h24.804C53.74 68.462 55.667 70 57.496 70c4.413 0 9.408-8.952 9.456-9.042 2.184-4.067 2.992-7.541 2.883-12.391zM43.612 15.666h-7.468c-1.411-3.686-1.678-6.726-1.726-11.188a14.025 14.025 0 019.194 11.188zM28.135 2.713h3.56c.008 5.25.142 8.807 1.563 12.953h-6.684c1.42-4.146 1.552-7.703 1.56-12.953zm-2.722 1.658c-.044 4.52-.304 7.579-1.724 11.295h-7.786c.774-5.207 4.516-9.641 9.51-11.295zM14.727 18.38H23.8c.08.064.158.073.222 0H44.79a1.774 1.774 0 010 3.547H14.727c-.98 0-1.776-.796-1.776-1.775 0-.977.796-1.772 1.776-1.772zm.93 8.02v-1.76h28.202v1.76c0 5.172-5.01 11.569-10.722 13.689-2.5.929-4.274.928-6.78-.003-5.7-2.129-10.7-8.524-10.7-13.685zm5.63 22.088c-1.405-1.833-2.756-4.24-2.107-7.732.599-.194 1.217-.37 1.858-.526 1.368 1.004 2.843 1.827 4.373 2.398.492.183.966.334 1.429.46l-5.554 5.4zm16.941 0l-5.557-5.402c.458-.124.925-.273 1.41-.454 1.537-.57 3.02-1.395 4.394-2.402a25.94 25.94 0 011.857.525c.651 3.488-.7 5.897-2.104 7.732zm26.334 11.189c-1.604 2.994-5.361 7.611-7.066 7.611-1.704 0-5.46-4.617-7.066-7.613-1.792-3.333-2.528-6.113-2.568-9.897 1.463-.279 2.987-.825 4.485-1.588.053-.023.104-.05.154-.08a22.849 22.849 0 004.995-3.542c2.889 2.695 6.406 4.596 9.634 5.21-.043 3.785-.778 6.565-2.568 9.899z" fill="#32435F"/></svg>