<svg width="72" height="72" fill="none" xmlns="http://www.w3.org/2000/svg"><path d="M28.83 48.17l9.667-29.003a2.051 2.051 0 00-3.89-1.297l-9.668 29.003a2.051 2.051 0 003.89 1.297zm14.489-8.998a6.16 6.16 0 006.152-6.152 6.16 6.16 0 00-6.152-6.152 6.16 6.16 0 00-6.152 6.152 6.16 6.16 0 006.152 6.152zm0-8.203c1.13 0 2.05.92 2.05 2.05 0 1.132-.92 2.052-2.05 2.052s-2.05-.92-2.05-2.051c0-1.13.92-2.05 2.05-2.05zm-23.202-4.101a6.16 6.16 0 00-6.152 6.152 6.16 6.16 0 006.152 6.152 6.16 6.16 0 006.152-6.152 6.16 6.16 0 00-6.152-6.152zm0 8.203c-1.13 0-2.05-.92-2.05-2.051 0-1.13.92-2.05 2.05-2.05s2.05.92 2.05 2.05-.92 2.05-2.05 2.05z" fill="#32435F"/><path d="M70.59 26.43l-7.151-9.535.279-1.953a2.051 2.051 0 00-.58-1.74l-4.35-4.35 4.35-4.351a2.05 2.05 0 10-2.9-2.9l-4.351 4.35-4.35-4.35a2.053 2.053 0 00-1.74-.58l-20.302 2.9a2.05 2.05 0 00-1.16.58L3.199 29.637C.267 32.568.267 37.339 3.2 40.27l21.269 21.268c.435.435.91.804 1.415 1.11v.832c0 4.146 3.373 7.52 7.52 7.52H63.48c4.146 0 7.52-3.374 7.52-7.52V27.66a2.06 2.06 0 00-.41-1.231zM6.1 37.37a3.422 3.422 0 010-4.833L30.75 7.885l18.61-2.659 3.626 3.626-2.9 2.9-1.45-1.45a2.05 2.05 0 00-2.9 2.9l5.8 5.8c.4.4.925.601 1.45.601a2.05 2.05 0 001.45-3.5l-1.45-1.451 2.9-2.9 3.625 3.625-2.659 18.61-24.651 24.652a3.396 3.396 0 01-2.417 1.001 3.396 3.396 0 01-2.417-1L6.099 37.37zm60.799 26.11a3.422 3.422 0 01-3.419 3.42H33.403a3.422 3.422 0 01-3.408-3.166 7.49 7.49 0 005.107-2.194l25.135-25.135c.314-.314.517-.721.58-1.16l1.801-12.607 4.28 5.707v35.137z" fill="#32435F"/><path d="M28.83 48.17l9.667-29.003a2.051 2.051 0 00-3.89-1.297l-9.668 29.003a2.051 2.051 0 003.89 1.297zm14.489-8.998a6.16 6.16 0 006.152-6.152 6.16 6.16 0 00-6.152-6.152 6.16 6.16 0 00-6.152 6.152 6.16 6.16 0 006.152 6.152zm0-8.203c1.13 0 2.05.92 2.05 2.05 0 1.132-.92 2.052-2.05 2.052s-2.05-.92-2.05-2.051c0-1.13.92-2.05 2.05-2.05zm-23.202-4.101a6.16 6.16 0 00-6.152 6.152 6.16 6.16 0 006.152 6.152 6.16 6.16 0 006.152-6.152 6.16 6.16 0 00-6.152-6.152zm0 8.203c-1.13 0-2.05-.92-2.05-2.051 0-1.13.92-2.05 2.05-2.05s2.05.92 2.05 2.05-.92 2.05-2.05 2.05z" stroke="#fff"/><path d="M70.59 26.43l-7.151-9.535.279-1.953a2.051 2.051 0 00-.58-1.74l-4.35-4.35 4.35-4.351a2.05 2.05 0 10-2.9-2.9l-4.351 4.35-4.35-4.35a2.053 2.053 0 00-1.74-.58l-20.302 2.9a2.05 2.05 0 00-1.16.58L3.199 29.637C.267 32.568.267 37.339 3.2 40.27l21.269 21.268c.435.435.91.804 1.415 1.11v.832c0 4.146 3.373 7.52 7.52 7.52H63.48c4.146 0 7.52-3.374 7.52-7.52V27.66a2.06 2.06 0 00-.41-1.231zM6.1 37.37a3.422 3.422 0 010-4.833L30.75 7.885l18.61-2.659 3.626 3.626-2.9 2.9-1.45-1.45a2.05 2.05 0 00-2.9 2.9l5.8 5.8c.4.4.925.601 1.45.601a2.05 2.05 0 001.45-3.5l-1.45-1.451 2.9-2.9 3.625 3.625-2.659 18.61-24.651 24.652a3.396 3.396 0 01-2.417 1.001 3.396 3.396 0 01-2.417-1L6.099 37.37zm60.799 26.11a3.422 3.422 0 01-3.419 3.42H33.403a3.422 3.422 0 01-3.408-3.166 7.49 7.49 0 005.107-2.194l25.135-25.135c.314-.314.517-.721.58-1.16l1.801-12.607 4.28 5.707v35.137z" stroke="#fff"/></svg>