<svg width="71" height="70" fill="none" xmlns="http://www.w3.org/2000/svg"><path d="M42.917 28.498L32.4 38.432l-5.048-5.193a1.455 1.455 0 10-2.086 2.027l6.054 6.215a1.481 1.481 0 002.057.043l11.568-10.911a1.454 1.454 0 00.059-2.057 1.489 1.489 0 00-2.087-.058z" fill="#32435F"/><path d="M35.113 13.21c-12.02 0-21.794 9.773-21.794 21.794 0 12.02 9.774 21.794 21.794 21.794 12.02 0 21.794-9.774 21.794-21.794 0-12.02-9.773-21.794-21.794-21.794zm0 40.67c-10.416 0-18.877-8.475-18.877-18.876 0-10.402 8.461-18.877 18.877-18.877 10.426 0 18.877 8.451 18.877 18.877 0 10.425-8.451 18.877-18.877 18.877z" fill="#32435F"/><path d="M65.106 26.98l.481-8.65a1.456 1.456 0 00-.802-1.386l-7.703-3.895-3.894-7.703a1.48 1.48 0 00-1.386-.802l-8.666.467-7.22-4.77a1.458 1.458 0 00-1.605 0L27.09 5.01l-8.65-.481a1.453 1.453 0 00-1.387.802l-3.895 7.702-7.702 3.895c-.516.265-.83.807-.802 1.386l.48 8.651-4.77 7.221a1.458 1.458 0 000 1.605l4.756 7.235-.481 8.65a1.452 1.452 0 00.802 1.386l7.703 3.895 3.895 7.703c.264.516.806.83 1.385.802l8.651-.481 7.221 4.77a1.42 1.42 0 001.605 0l7.22-4.77 8.652.481a1.456 1.456 0 001.385-.802l3.895-7.703 7.703-3.895a1.48 1.48 0 00.802-1.385l-.481-8.651 4.77-7.221c.32-.487.32-1.118 0-1.605l-4.741-7.22zm-2.714 14.85a1.37 1.37 0 00-.233.89l.452 8.184-7.28 3.676a1.44 1.44 0 00-.64.643l-3.677 7.279-8.184-.452a1.594 1.594 0 00-.89.233l-6.827 4.508-6.827-4.508a1.445 1.445 0 00-.802-.248h-.073l-8.184.453-3.676-7.28a1.436 1.436 0 00-.642-.642l-7.294-3.662.452-8.183a1.594 1.594 0 00-.234-.89l-4.507-6.827 4.507-6.828c.179-.26.261-.575.234-.89l-.452-8.183 7.28-3.676c.277-.14.502-.364.641-.642l3.676-7.28 8.184.453c.313.01.622-.07.89-.234l6.827-4.507 6.827 4.507c.261.179.576.261.89.234l8.184-.453 3.676 7.28c.14.278.364.503.642.642l7.279 3.676-.452 8.184c-.011.313.07.622.233.89l4.508 6.827-4.508 6.827z" fill="#32435F"/></svg>