<svg width="56" height="56" fill="#008BE6" xmlns="http://www.w3.org/2000/svg"><g clip-path="url(#clip0)" fill="#008BE6"><path d="M55.82 23.578L46.854 9.903a1.094 1.094 0 00-.914-.494H10.104c-.368 0-.711.185-.913.492L.208 23.535a1.093 1.093 0 00.063 1.363l4.553 5.198a1.094 1.094 0 101.645-1.44L3.505 25.27h14.711l7.394 25.24-8.354-9.538a1.094 1.094 0 10-1.645 1.441l11.57 13.212a1.093 1.093 0 001.646 0l12.319-14.07a1.093 1.093 0 10-1.646-1.44l-9.1 10.394 7.39-25.239h14.705l-6.801 7.768a1.093 1.093 0 101.645 1.44l8.39-9.581c.324-.37.361-.91.092-1.32zm-52.695-.494l6.977-10.59 6.944 10.59H3.126zm9.004-11.487h13.85l-6.925 10.559-6.925-10.56zm15.874.9l6.943 10.587H21.06l6.942-10.587zm0 38.406l-7.508-25.632h15.016l-7.508 25.632zm8.968-28.72l-6.943-10.586h13.886L36.97 22.183zm2.025.901l6.943-10.587 6.942 10.587H38.996z"/><path d="M17.193 35.767a5.122 5.122 0 01-5.117-5.116 1.094 1.094 0 00-2.187 0 5.122 5.122 0 01-5.116 5.116 1.094 1.094 0 000 2.188 5.122 5.122 0 015.116 5.116 1.094 1.094 0 002.187 0 5.122 5.122 0 015.117-5.116 1.094 1.094 0 000-2.188zm-6.21 3.463a7.36 7.36 0 00-2.37-2.369 7.36 7.36 0 002.37-2.37 7.36 7.36 0 002.369 2.37 7.36 7.36 0 00-2.37 2.37zM54.906 4.377a3.285 3.285 0 01-3.28-3.28 1.094 1.094 0 00-2.188 0 3.284 3.284 0 01-3.28 3.28 1.094 1.094 0 000 2.188 3.285 3.285 0 013.28 3.28 1.094 1.094 0 002.187 0 3.285 3.285 0 013.281-3.28 1.094 1.094 0 000-2.188zm-4.374 2.191a5.515 5.515 0 00-1.097-1.097 5.515 5.515 0 001.097-1.097c.312.416.681.785 1.097 1.097a5.51 5.51 0 00-1.097 1.097zm-6.478 30.113a1.097 1.097 0 00-.773-.32c-.287 0-.568.116-.773.32-.203.204-.32.486-.32.774 0 .287.117.57.32.773.204.203.486.32.773.32.288 0 .57-.117.773-.32.204-.204.321-.486.321-.773 0-.288-.117-.57-.32-.774z"/></g><defs><clipPath id="clip0"><path fill="#fff" d="M0 0h56v56H0z"/></clipPath></defs></svg>