<svg width="57" height="58" fill="none" xmlns="http://www.w3.org/2000/svg"><path d="M48.167 10.517h-3.522V9.202a3.522 3.522 0 00-3.522-3.522H15.297a3.522 3.522 0 00-3.522 3.522v1.315H8.253A3.522 3.522 0 004.73 14.04v4.696c0 7.63 8.405 17.022 18.783 19.323v5.47l-8.5 2.067a1.198 1.198 0 00-.891 1.174v4.696a1.174 1.174 0 001.174 1.173h25.826a1.174 1.174 0 001.174-1.173V46.77a1.15 1.15 0 00-.892-1.127l-8.5-2.137v-5.47C43.284 35.687 51.69 26.294 51.69 18.71v-4.695a3.522 3.522 0 00-3.522-3.499zM14.123 9.202a1.174 1.174 0 011.174-1.174h25.826a1.174 1.174 0 011.174 1.174v5.987c0 8.288-6.316 21.132-14.087 21.132-7.772 0-14.087-12.843-14.087-21.132V9.202zm-7.044 9.51v-4.697a1.174 1.174 0 011.174-1.174h3.522v2.348a29.983 29.983 0 007.63 19.042C12.01 30.85 7.08 23.783 7.08 18.71zm32.87 31.579H16.471v-2.607l8.358-2.09h6.762l8.358 2.09v2.607zm-9.391-7.044h-4.696V38.41a19.63 19.63 0 004.696 0v4.837zM49.34 18.71c0 5.072-4.93 12.139-12.326 15.52a29.983 29.983 0 007.63-19.042V12.84h3.522a1.174 1.174 0 011.174 1.175v4.695z" fill="#008BE6"/><path d="M24.688 24.464a1.174 1.174 0 001.174-1.174v-7.044a1.174 1.174 0 10-2.348 0v7.044a1.174 1.174 0 001.174 1.174zm7.044 0a1.174 1.174 0 001.174-1.174v-7.044a1.174 1.174 0 10-2.348 0v7.044a1.174 1.174 0 001.174 1.174z" fill="#008BE6"/></svg>