<svg width="57" height="58" fill="#008BE6" xmlns="http://www.w3.org/2000/svg"><path d="M36.689 10.236a1.174 1.174 0 001.174-1.174V6.714a1.174 1.174 0 00-2.348 0v2.348a1.174 1.174 0 001.174 1.174zm11.739 11.739h2.348a1.174 1.174 0 100-2.348h-2.348a1.174 1.174 0 000 2.348zm-4.695-7.043a1.104 1.104 0 00.822-.353l2.348-2.348a1.162 1.162 0 00-1.644-1.643l-2.348 2.348a1.125 1.125 0 000 1.643 1.103 1.103 0 00.822.353zM40.07 17.42a54.943 54.943 0 00-12.82-9.86c-4.437-2.349-7.7-2.654-9.391-.916a4.086 4.086 0 00-1.127 3.005v15.285a5.987 5.987 0 01-1.714 4.085l-7.232 7.302a9.392 9.392 0 000 13.383 9.391 9.391 0 0013.383 0l.258-.235 1.245 1.221a6.034 6.034 0 004.343 1.808 6.175 6.175 0 006.152-6.151 6.035 6.035 0 00-1.808-4.344l-.845-.869a6.057 6.057 0 012.043-.376h15.871c.171-.005.339-.045.493-.117a3.451 3.451 0 001.926-.986c1.737-1.714 1.408-4.977-.916-9.392A54.943 54.943 0 0040.07 17.42zM19.479 8.287c.39-.295.874-.437 1.361-.4a12.67 12.67 0 015.283 1.738 54.259 54.259 0 0112.256 9.392 54.26 54.26 0 019.392 12.256c2.02 3.874 1.972 6.034 1.338 6.692a1.833 1.833 0 01-1.361.399 19.042 19.042 0 01-8.805-3.827 58.743 58.743 0 01-2.63-1.95 8.41 8.41 0 00.376-2.347 9.393 9.393 0 00-11.95-9.11c-.635-.845-1.292-1.714-1.926-2.63a19.04 19.04 0 01-3.733-8.85 1.832 1.832 0 01.399-1.362zm14.886 22.68c-1.41-1.173-2.771-2.347-4.11-3.732-1.338-1.386-2.559-2.7-3.732-4.11a7.045 7.045 0 017.912 7.044c0 .306-.047.54-.07.799zM9.43 48.06a7.044 7.044 0 010-10.096l.399-.399a11.74 11.74 0 0010.096 10.096l-.4.4a7.302 7.302 0 01-10.095 0zm20.286-4.414a3.874 3.874 0 011.103 2.7 3.85 3.85 0 01-1.103 2.7 3.968 3.968 0 01-5.4 0l-1.221-1.244 5.376-5.33 1.245 1.174zm2.84-5.235a8.078 8.078 0 00-5.799 2.347l-4.602 4.696h-.728a9.391 9.391 0 01-9.391-9.391 7.067 7.067 0 010-.728l4.696-4.696a8.169 8.169 0 002.348-5.8v-8.146a36.706 36.706 0 001.901 3.075 49.438 49.438 0 002.818 3.78 68.079 68.079 0 004.813 5.33 72.22 72.22 0 005.306 4.813c1.198.963 2.348 1.879 3.804 2.818a36.67 36.67 0 003.076 1.902h-8.241z" fill="#fff"/></svg>