<svg width="70" height="70" fill="none" xmlns="http://www.w3.org/2000/svg"><path d="M62.344 8.75h-5.469V6.562a4.375 4.375 0 10-8.75 0V8.75h-8.75V6.562a4.375 4.375 0 10-8.75 0V8.75h-8.75V6.562a4.375 4.375 0 10-8.75 0V8.75H7.656a5.469 5.469 0 00-5.468 5.469v43.75a5.468 5.468 0 005.468 5.468h30.625a1.093 1.093 0 100-2.187H7.656a3.291 3.291 0 01-3.281-3.281V24.062h61.25v18.594a1.093 1.093 0 102.188 0V14.22a5.468 5.468 0 00-5.47-5.469zM50.312 6.562a2.188 2.188 0 014.376 0v6.563a2.188 2.188 0 01-4.376 0V6.562zm-17.5 0a2.188 2.188 0 014.376 0v6.563a2.188 2.188 0 01-4.376 0V6.562zm-17.5 0a2.188 2.188 0 014.376 0v6.563a2.188 2.188 0 01-4.375 0V6.562zm50.313 15.313H4.375v-7.656a3.291 3.291 0 013.281-3.281h5.469v2.187a4.375 4.375 0 108.75 0v-2.188h8.75v2.188a4.375 4.375 0 108.75 0v-2.188h8.75v2.188a4.375 4.375 0 108.75 0v-2.188h5.469a3.291 3.291 0 013.281 3.282v7.656z" fill="#008BE6" stroke="#008BE6" stroke-width=".8" stroke-linecap="square" stroke-linejoin="round"/><path d="M32.813 31.719a2.188 2.188 0 00-2.188-2.188H26.25a2.187 2.187 0 00-2.188 2.188V35a2.188 2.188 0 002.188 2.188h4.375A2.188 2.188 0 0032.813 35v-3.281zM26.25 35v-3.281h4.375V35H26.25zm-6.562-3.281A2.188 2.188 0 0017.5 29.53h-4.375a2.187 2.187 0 00-2.188 2.188V35a2.188 2.188 0 002.188 2.188H17.5A2.188 2.188 0 0019.688 35v-3.281zM13.125 35v-3.281H17.5V35h-4.375zm43.75 2.188A2.188 2.188 0 0059.063 35v-3.281a2.188 2.188 0 00-2.188-2.188H52.5a2.187 2.187 0 00-2.188 2.188V35a2.188 2.188 0 002.188 2.188h4.375zm-4.375-5.47h4.375V35H52.5v-3.281zm-19.687 9.845a2.188 2.188 0 00-2.188-2.188H26.25a2.188 2.188 0 00-2.188 2.188v3.28a2.187 2.187 0 002.188 2.188h4.375a2.187 2.187 0 002.188-2.187v-3.282zm-6.563 3.28v-3.28h4.375v3.28H26.25zm-6.562-3.28a2.188 2.188 0 00-2.188-2.188h-4.375a2.188 2.188 0 00-2.188 2.188v3.28a2.187 2.187 0 002.188 2.188H17.5a2.187 2.187 0 002.188-2.187v-3.282zm-6.563 3.28v-3.28H17.5v3.28h-4.375zm17.5 4.376H26.25a2.187 2.187 0 00-2.188 2.187v3.282a2.188 2.188 0 002.188 2.187h4.375a2.188 2.188 0 002.188-2.188v-3.28a2.187 2.187 0 00-2.188-2.188zm-4.375 5.468v-3.28h4.375v3.28H26.25zm13.125-17.499h4.375A2.188 2.188 0 0045.938 35v-3.281a2.188 2.188 0 00-2.188-2.188h-4.375a2.187 2.187 0 00-2.188 2.188V35a2.188 2.188 0 002.188 2.188zm0-5.47h4.375V35h-4.375v-3.281zm-2.187 13.126a2.187 2.187 0 002.187 2.187 1.094 1.094 0 100-2.187v-3.282h4.375a1.093 1.093 0 100-2.187h-4.375a2.188 2.188 0 00-2.188 2.188v3.28zM17.5 49.219h-4.375a2.187 2.187 0 00-2.188 2.187v3.282a2.188 2.188 0 002.188 2.187H17.5a2.188 2.188 0 002.188-2.188v-3.28a2.187 2.187 0 00-2.188-2.188zm-4.375 5.468v-3.28H17.5v3.28h-4.375z" fill="#008BE6" stroke="#008BE6" stroke-width=".8" stroke-linecap="square" stroke-linejoin="round"/><path d="M53.594 39.375a14.219 14.219 0 1014.218 14.219 14.235 14.235 0 00-14.218-14.219zm0 26.25a12.031 12.031 0 1112.031-12.031 12.046 12.046 0 01-12.031 12.031z" fill="#008BE6" stroke="#008BE6" stroke-width=".8" stroke-linecap="square" stroke-linejoin="round"/><path d="M59.913 49.009l-8.507 8.507-3.866-3.868a1.093 1.093 0 00-1.547 1.547l4.64 4.64a1.093 1.093 0 001.546 0l9.28-9.28a1.094 1.094 0 00-1.546-1.546z" fill="#008BE6" stroke="#008BE6" stroke-width=".8" stroke-linecap="square" stroke-linejoin="round"/></svg>