<svg width="70" height="70" fill="none" xmlns="http://www.w3.org/2000/svg"><g clip-path="url(#clip0)" fill="#008BE6"><path d="M47.488 21.212a1.367 1.367 0 10-.001 2.733 1.367 1.367 0 000-2.733zm-24.841 24.84a1.367 1.367 0 10-.001 2.734 1.367 1.367 0 000-2.734z"/><path d="M68.367 8.411a1.366 1.366 0 00-1.28.369l-5.667 5.712h-2.717l-2.992-3.099V8.638l5.587-5.67a1.366 1.366 0 00-.537-2.255A13.637 13.637 0 0056.395 0c-4.453 0-8.498 2.077-11.1 5.697-2.434 3.39-3.184 7.542-2.109 11.517l-10.07 10.071-16.78-16.815v-3.3c0-.48-.252-.926-.663-1.173L6.007.196A1.366 1.366 0 004.337.4L.47 4.267a1.368 1.368 0 00-.206 1.67l5.8 9.667c.247.412.692.663 1.172.664l3.3.001 16.779 16.817-10.032 10.032c-3.975-1.075-8.13-.323-11.522 2.113C2.143 47.83.068 51.874.068 56.327c0 1.493.24 2.963.713 4.366a1.366 1.366 0 002.266.526l5.668-5.712h2.732l3.113 3.113v2.732L8.848 67.02a1.367 1.367 0 00.526 2.266c1.403.473 2.872.713 4.366.713 4.453 0 8.497-2.076 11.096-5.694 2.436-3.39 3.188-7.546 2.113-11.52l8.057-8.058 1.846 2.005-.847.846a1.367 1.367 0 001.934 1.934l.767-.767 17.317 18.81a8.201 8.201 0 0011.641.04c3.198-3.198 3.198-8.402 0-11.6l-.042-.041-18.84-17.284.758-.759a1.367 1.367 0 10-1.934-1.933l-.84.842-2.01-1.844 8.097-8.096a13.7 13.7 0 003.542.463c7.539 0 13.671-6.133 13.671-13.671 0-1.494-.24-2.962-.713-4.366a1.366 1.366 0 00-.986-.895zM12.07 13.936a1.353 1.353 0 00-.967-.387l-3.092-.001-4.853-8.102 2.357-2.357 8.088 4.854v3.092c0 .362.144.71.4.965l17.178 17.22-1.934 1.933L12.07 13.936zm34.776 26.67l18.905 17.342a5.478 5.478 0 01-.02 7.715 5.469 5.469 0 01-7.716.019L40.64 46.81l6.206-6.205zm-2.016-1.851l-6.043 6.041-1.846-2.005 5.88-5.88 2.009 1.844zm11.565-14.146c-1.196 0-2.372-.192-3.494-.57a1.37 1.37 0 00-1.403.33l-27.062 27.06a1.367 1.367 0 00-.329 1.404c1.137 3.375.593 6.974-1.492 9.877-2.079 2.894-5.314 4.554-8.875 4.554-.4 0-.798-.022-1.192-.064l4.342-4.309c.259-.256.404-.605.404-.97v-3.868c0-.362-.144-.71-.4-.966l-3.914-3.915a1.367 1.367 0 00-.967-.4H8.145c-.364 0-.714.146-.97.404L2.866 57.52a11.058 11.058 0 01-.064-1.192c0-3.562 1.66-6.797 4.555-8.876 2.902-2.085 6.502-2.629 9.877-1.492a1.366 1.366 0 001.403-.329L45.698 18.57c.368-.368.495-.91.33-1.403-1.138-3.375-.595-6.973 1.488-9.874 2.08-2.897 5.317-4.557 8.878-4.557.413 0 .822.022 1.228.067L53.37 7.118c-.252.256-.393.6-.393.96v3.867c0 .354.137.695.383.95l3.778 3.913c.257.268.612.418.983.418h3.868c.364 0 .714-.145.97-.404l4.309-4.342c.043.394.064.792.064 1.192 0 6.03-4.906 10.937-10.937 10.937z"/><path d="M42.655 25.478L25.546 42.587a1.368 1.368 0 001.934 1.933l17.109-17.109a1.367 1.367 0 10-1.934-1.933zm17.276 36.319a1.367 1.367 0 001.931-1.937L49.54 47.577a1.367 1.367 0 00-1.93 1.936l12.32 12.284z"/></g><defs><clipPath id="clip0"><path fill="#fff" d="M0 0h69.863v70H0z"/></clipPath></defs></svg>