<svg width="70" height="70" fill="none" xmlns="http://www.w3.org/2000/svg"><path d="M67.697 36.107a5.079 5.079 0 00-4.833-.4c-2.501 1.098-5.287 2.014-8.274 2.736V27.53c0-2.38-2.623-4.442-7.59-5.977 0 0-.003-5.832-.006-5.867-.117-2.585-4.446-3.992-8.089-4.72a1.033 1.033 0 00-1.14.594 1.025 1.025 0 00.94 1.458c5.09 1.045 6.243 2.383 6.243 2.774 0 .335-.844 1.423-4.702 2.42-3.447.89-8.046 1.38-12.952 1.38-4.905 0-9.504-.49-12.951-1.38-3.857-.997-4.702-2.085-4.702-2.42 0-.335.845-1.422 4.702-2.419 3.447-.89 8.046-1.38 12.951-1.38 2.227 0 4.405.102 6.474.303a1.026 1.026 0 00.198-2.042 69.337 69.337 0 00-6.672-.312c-5.073 0-9.855.514-13.464 1.446-4.14 1.07-6.24 2.551-6.24 4.404v5.761C2.622 23.09 0 25.15 0 27.531v17.01c0 .62.153 1.233.442 1.771 1.362 2.536 3.778 4.852 7.183 6.884a1.025 1.025 0 101.051-1.76A25.514 25.514 0 016.9 50.272v-8.756a1.025 1.025 0 00-2.051 0v7.087c-1.123-1.05-2.002-2.147-2.6-3.262a1.698 1.698 0 01-.198-.8V27.53c0-.993 1.482-2.479 5.54-3.824v2.071c0 1.853 2.099 3.335 6.24 4.405 3.609.932 8.39 1.445 13.464 1.445 5.073 0 9.855-.513 13.464-1.445C44.9 29.113 47 27.63 47 25.778v-2.07c4.06 1.345 5.54 2.833 5.54 3.823 0 1.733-3.877 3.413-7.196 4.324a1.026 1.026 0 00.543 1.978c2.958-.812 5.19-1.791 6.653-2.902v7.97a66.958 66.958 0 01-3.457.616v-1.851a1.025 1.025 0 10-2.05 0v2.132a75.95 75.95 0 01-5.264.454v-1.253a1.025 1.025 0 10-2.051 0v1.332a78.846 78.846 0 01-5.127-.032v-.48a1.025 1.025 0 10-2.05 0v.373c-6.927-.45-13.471-1.812-18.816-3.944-.49-.196-.434-.613-.388-.782.049-.175.22-.572.755-.486 4.004.648 8.57.99 13.204.99 5.001 0 9.878-.395 14.105-1.142a1.025 1.025 0 10-.357-2.02c-4.11.727-8.865 1.11-13.748 1.11-4.526 0-8.98-.332-12.877-.962-1.418-.23-2.675.578-3.058 1.963-.013.046-.021.092-.032.138-1.53-.883-3.44-2.23-4.604-3.954a1.025 1.025 0 10-1.7 1.147c2.51 3.72 7.661 5.793 7.939 5.902h.001c6.881 2.746 15.648 4.257 24.686 4.257 6.759 0 13.297-.832 19.04-2.389v15.528c-2.787.785-5.79 1.394-8.938 1.808v-8.19a1.025 1.025 0 10-2.05 0v8.431c-2.612.27-5.308.41-8.052.41l-.111-.001v-8.43a1.025 1.025 0 10-2.051 0v8.4a76.308 76.308 0 01-8.162-.654v-8.696a1.025 1.025 0 10-2.05 0v8.387c-2.875-.476-5.617-1.12-8.163-1.918v-8.793a1.025 1.025 0 10-2.051 0v8.1c-.76-.275-1.5-.565-2.217-.87a1.026 1.026 0 00-.804 1.887c7.03 2.991 16.125 4.638 25.609 4.638 11.652 0 22.523-2.458 29.827-6.745A5.118 5.118 0 0070 48.918v-8.555c0-1.723-.86-3.314-2.303-4.256zm-25.45-8.523v-2.175a1.025 1.025 0 10-2.052 0v2.8c-1.455.373-3.113.675-4.912.9v-2.953a1.025 1.025 0 10-2.05 0v3.17c-1.57.137-3.219.22-4.913.244v-3.542a1.025 1.025 0 10-2.05 0v3.542a67.218 67.218 0 01-4.913-.245v-3.861a1.025 1.025 0 10-2.05 0v3.645c-1.8-.225-3.458-.527-4.913-.9v-4.184a1.025 1.025 0 10-2.05 0v3.559c-2.166-.795-2.703-1.54-2.703-1.806v-7.177c1.02.605 2.416 1.139 4.189 1.597 3.61.932 8.391 1.445 13.464 1.445 5.074 0 9.856-.513 13.465-1.445 1.772-.458 3.17-.992 4.19-1.597v7.177c0 .267-.538 1.01-2.703 1.806zm25.702 21.334a3.06 3.06 0 01-1.51 2.626c-2.238 1.313-4.834 2.446-7.7 3.382V39.423a47.779 47.779 0 004.949-1.838 2.996 2.996 0 012.888.238 2.984 2.984 0 011.373 2.539v8.555z" fill="#008BE6"/><path d="M63.344 41.076c-1.626 0-2.853 1.89-2.853 4.395 0 2.506 1.227 4.396 2.853 4.396 1.627 0 2.854-1.89 2.854-4.396 0-2.506-1.227-4.395-2.853-4.395zm.002 6.74c-.187-.03-.804-.822-.804-2.345 0-1.522.617-2.314.8-2.345.188.031.805.823.805 2.345 0 1.523-.617 2.314-.8 2.345zM18.479 13.742c-2.68.395-4.465.936-4.465 2.292 0 1.356 1.785 1.897 4.465 2.292 2.363.348 5.494.54 8.816.54 3.322 0 6.453-.192 8.815-.54 2.68-.395 4.466-.936 4.466-2.292 0-1.356-1.785-1.897-4.466-2.292-2.362-.349-5.493-.54-8.815-.54-3.322 0-6.453.191-8.816.54zm18.803 2.292c-1.782.387-5.145.782-9.987.782-4.842 0-8.206-.395-9.988-.782 1.782-.388 5.146-.782 9.988-.782s8.205.394 9.987.782z" fill="#008BE6"/></svg>