<svg width="70" height="70" fill="none" xmlns="http://www.w3.org/2000/svg"><path d="M70 41.563a6.48 6.48 0 00-1.899-4.591 7.241 7.241 0 001.867-5.568c-.341-3.707-3.681-6.612-7.607-6.612H44.345c.892-2.71 2.322-7.677 2.322-11.667 0-6.326-5.376-11.666-8.75-11.666-3.028 0-5.195 1.706-5.285 1.776a1.46 1.46 0 00-.549 1.14v9.89L23.68 32.463l-.347.178v-.558c0-.805-.653-1.458-1.458-1.458H7.292A7.298 7.298 0 000 37.917V61.25a7.298 7.298 0 007.292 7.292h8.75c3.152 0 5.848-2.013 6.862-4.822 2.427 1.249 5.694 1.905 7.721 1.905h26.772c3.176 0 5.956-2.14 6.61-5.092a6.584 6.584 0 00-.526-4.384 6.536 6.536 0 002.92-8.75A6.536 6.536 0 0070 41.563zm-6.151 3.599a1.466 1.466 0 00-1.22.989 1.46 1.46 0 00.386 1.522 3.6 3.6 0 011.152 2.64c0 1.84-1.392 3.386-3.232 3.599a1.466 1.466 0 00-1.219.989c-.178.54-.03 1.131.385 1.522.96.904 1.345 2.173 1.056 3.48-.359 1.627-1.94 2.806-3.76 2.806H30.625c-2.368 0-6.34-1.112-7.718-2.491a1.459 1.459 0 00-2.49 1.033 4.38 4.38 0 01-4.375 4.374h-8.75a4.38 4.38 0 01-4.375-4.375V37.917a4.38 4.38 0 014.375-4.375h13.125V35c0 .505.262.974.694 1.243a1.49 1.49 0 001.417.06l2.917-1.457c.294-.146.53-.391.67-.692l8.75-18.958c.088-.193.135-.403.135-.613V5.165c.607-.335 1.66-.79 2.917-.79 1.598 0 5.833 3.973 5.833 8.75 0 5.134-2.794 12.533-2.82 12.606-.17.446-.111.95.16 1.347.274.394.723.63 1.202.63h20.07c2.432 0 4.497 1.742 4.7 3.964.156 1.663-.644 3.244-2.076 4.127-.446.275-.711.77-.691 1.298.02.528.324 1 .79 1.243a3.61 3.61 0 011.998 3.223c0 1.84-1.39 3.386-3.234 3.599z" fill="#008BE6"/><path d="M21.875 33.541A1.46 1.46 0 0020.417 35v26.25a1.459 1.459 0 002.916 0V35a1.46 1.46 0 00-1.458-1.459z" fill="#008BE6"/></svg>