<svg width="100" height="100" fill="none" xmlns="http://www.w3.org/2000/svg"><rect width="100" height="100" rx="10" fill="#008BE6"/><path d="M28.36 37v28h-6.48V42.2h-5.6V37h12.08zm16.864 28.48c-2.32 0-4.387-.573-6.2-1.72-1.813-1.147-3.24-2.8-4.28-4.96-1.013-2.187-1.52-4.787-1.52-7.8s.507-5.6 1.52-7.76c1.04-2.187 2.467-3.853 4.28-5 1.813-1.147 3.88-1.72 6.2-1.72 2.32 0 4.387.573 6.2 1.72 1.813 1.147 3.227 2.813 4.24 5 1.04 2.16 1.56 4.747 1.56 7.76s-.52 5.613-1.56 7.8c-1.013 2.16-2.427 3.813-4.24 4.96-1.813 1.147-3.88 1.72-6.2 1.72zm0-5.48c1.707 0 3.04-.733 4-2.2.987-1.467 1.48-3.733 1.48-6.8 0-3.067-.493-5.333-1.48-6.8-.96-1.467-2.293-2.2-4-2.2-1.68 0-3.013.733-4 2.2-.96 1.467-1.44 3.733-1.44 6.8 0 3.067.48 5.333 1.44 6.8.987 1.467 2.32 2.2 4 2.2zm27.838-11.6c2.453.4 4.333 1.32 5.64 2.76 1.306 1.413 1.96 3.173 1.96 5.28a8.465 8.465 0 01-1.28 4.52c-.854 1.36-2.16 2.453-3.92 3.28-1.734.827-3.867 1.24-6.4 1.24-1.974 0-3.92-.253-5.84-.76-1.894-.533-3.507-1.28-4.84-2.24l2.52-4.96c1.066.8 2.293 1.427 3.68 1.88 1.413.427 2.853.64 4.32.64 1.626 0 2.906-.307 3.84-.92.933-.64 1.4-1.533 1.4-2.68 0-2.293-1.747-3.44-5.24-3.44h-2.96v-4.28l5.76-6.52h-11.92V37h19.6v4.2l-6.32 7.2z" fill="#fff"/></svg>